<svg width="120" height="100" viewBox="0 0 120 100" fill="none" xmlns="http://www.w3.org/2000/svg">
    <g id="Frame 1">
        <path id="light1"
            d="M43.5426 49.139C44.1978 49.5261 44.1978 50.4739 43.5426 50.861L14.2586 68.1613C13.592 68.5551 12.75 68.0746 12.75 67.3003L12.75 32.6997C12.75 31.9254 13.592 31.4449 14.2586 31.8387L43.5426 49.139Z"
            fill="#11BBD2" fill-opacity="0.5" />
        <g id="dark">
            <path id="dark2"
                d="M53.7926 49.1916C54.4478 49.5786 54.4478 50.5265 53.7926 50.9135L24.5086 68.2138C23.842 68.6077 23 68.1271 23 67.3529L23 32.7523C23 31.978 23.842 31.4975 24.5086 31.8913L53.7926 49.1916Z"
                fill="#353CDA" fill-opacity="0.5" />
            <path id="dark1"
                d="M43.5426 49.139C44.1978 49.5261 44.1978 50.4739 43.5426 50.861L14.2586 68.1613C13.592 68.5551 12.75 68.0746 12.75 67.3003L12.75 32.6997C12.75 31.9254 13.592 31.4449 14.2586 31.8387L43.5426 49.139Z"
                fill="#353CDA" fill-opacity="0.5" />
        </g>
    </g>
</svg>